Coordinates
version=1
nRows=8
nColumns=63
inDegrees=yes

Units are S.I. units (second, meters, Newtons, ...)
If the header above contains a line with 'inDegrees', this indicates whether rotational values are in degrees (yes) or radians (no).

endheader
time	pelvis_tilt	pelvis_list	pelvis_rotation	pelvis_tx	pelvis_ty	pelvis_tz	hip_flexion_r	hip_adduction_r	hip_rotation_r	knee_angle_r	knee_angle_r_beta	ankle_angle_r	subtalar_angle_r	mtp_angle_r	hip_flexion_l	hip_adduction_l	hip_rotation_l	knee_angle_l	knee_angle_l_beta	ankle_angle_l	subtalar_angle_l	mtp_angle_l	L5_S1_Flex_Ext	L5_S1_Lat_Bending	L5_S1_axial_rotation	L4_L5_Flex_Ext	L4_L5_Lat_Bending	L4_L5_axial_rotation	L3_L4_Flex_Ext	L3_L4_Lat_Bending	L3_L4_axial_rotation	L2_L3_Flex_Ext	L2_L3_Lat_Bending	L2_L3_axial_rotation	L1_L2_Flex_Ext	L1_L2_Lat_Bending	L1_L2_axial_rotation	L1_T12_Flex_Ext	L1_T12_Lat_Bending	L1_T12_axial_rotation	Abs_r3	Abs_r2	Abs_r1	Abs_t1	Abs_t2	neck_flexion	neck_bending	neck_rotation	arm_flex_r	arm_add_r	arm_rot_r	elbow_flex_r	pro_sup_r	wrist_flex_r	wrist_dev_r	arm_flex_l	arm_add_l	arm_rot_l	elbow_flex_l	pro_sup_l	wrist_flex_l	wrist_dev_l
      2.91525424	     -1.39051216	     -4.09038021	     85.07137049	      0.19400185	      0.99024870	      0.42989741	      5.79340394	     -0.99176269	     -3.71858152	     14.36509782	      0.25071825	     24.97564792	      0.12986257	      0.00000000	      4.09555733	      0.71056944	     -6.32620614	      8.50691645	      0.14847370	     27.38824600	      4.57726043	      0.00000000	      0.08175778	      0.34521371	     -0.00995881	      0.15183237	      0.45913424	     -0.01058124	      0.13431985	      0.83935262	     -0.01058124	      0.09344096	      0.83935262	     -0.00871396	      0.07592027	      0.70395980	     -0.00809154	      0.04671639	      0.53473604	     -0.00746911	      0.58398763	      3.90512657	     -0.05538793	      0.00000000	      0.00000000	     14.64997732	      6.09007242	     -1.10485130	     14.23028869	    -11.90057632	     60.91771265	     52.93106764	     11.89233550	    -12.32392377	     17.00982168	     19.77556756	     -5.65773581	     58.27141226	     50.26559032	     60.62294264	     -0.99827705	     16.66975987
      2.93220339	     -1.55651838	     -4.08285425	     84.59350794	      0.19449763	      0.99016000	      0.43061051	      6.02535091	     -1.16549744	     -3.46095000	     14.59699905	      0.25476569	     25.04046762	      0.36054239	      0.00000000	      4.10211953	      0.87766653	     -6.29275799	      8.43641246	      0.14724317	     27.20584968	      4.01199177	      0.00000000	      0.07228955	      0.31618083	      0.08674508	      0.13424892	      0.42052051	      0.09216665	      0.11876450	      0.76876208	      0.09216665	      0.08261973	      0.76876208	      0.07590195	      0.06712808	      0.64475596	      0.07048038	      0.04130625	      0.48976411	      0.06505881	      0.51635703	      3.57670083	      0.48245011	      0.00000000	      0.00000000	     15.48642091	      6.24196735	     -0.72690191	     14.11685818	    -11.76012785	     60.30571522	     52.89565732	     11.90962892	    -12.16994730	     17.41991182	     19.97514776	     -5.73166435	     58.50908714	     50.21326764	     60.48087801	     -0.80134979	     16.23470899
      2.94915254	     -1.60107229	     -4.06476890	     84.47169923	      0.19452560	      0.99008965	      0.43095256	      6.07726514	     -1.22695131	     -3.48971793	     14.64310482	      0.25557039	     25.07034903	      0.52411655	      0.00000000	      4.09559864	      0.92997855	     -6.16713122	      8.37195335	      0.14611815	     27.18788718	      3.79080656	      0.00000000	      0.08132505	      0.29871469	      0.11095372	      0.15102875	      0.39729053	      0.11788833	      0.13360892	      0.72629489	      0.11788833	      0.09294640	      0.72629489	      0.09708450	      0.07551844	      0.60913899	      0.09014990	      0.04646913	      0.46270905	      0.08321529	      0.58089670	      3.37912028	      0.61709130	      0.00000000	      0.00000000	     15.98041252	      6.01041176	     -0.56181668	     14.12832351	    -11.76648515	     60.16553088	     52.94194146	     12.48287314	    -11.81208714	     17.53489705	     20.12750331	     -5.76125249	     58.77341448	     50.09176047	     60.00171278	     -0.80639635	     15.87658506
      2.96610169	     -1.70208028	     -4.08395302	     83.90056493	      0.19506585	      0.98991152	      0.43149734	      6.38241484	     -1.32827890	     -3.20691916	     14.97305472	      0.26132910	     25.23197837	      0.79442106	      0.00000000	      4.13722312	      1.02241056	     -6.32901412	      8.37945304	      0.14624905	     27.13166096	      3.26002770	      0.00000000	      0.09999217	      0.28237782	      0.21397561	      0.18569545	      0.37556250	      0.22734908	      0.16427713	      0.68657344	      0.22734908	      0.11428105	      0.68657344	      0.18722865	      0.09285272	      0.57582486	      0.17385518	      0.05713552	      0.43740325	      0.16048170	      0.71423404	      3.19431440	      1.19006813	      0.00000000	      0.00000000	     16.50336734	      5.48475838	     -0.08287850	     14.18418633	    -11.78872196	     59.94355602	     53.08170643	     11.49169483	    -11.89201335	     17.91670230	     20.28709473	     -5.78148852	     59.02258376	     49.89926195	     59.41711541	     -0.47223610	     15.03279846
      2.98305085	     -1.77362504	     -4.08174197	     83.69764210	      0.19515050	      0.98988057	      0.43175493	      6.46036924	     -1.39695546	     -3.12922836	     14.99654486	      0.26173908	     25.30119809	      0.85589220	      0.00000000	      4.14147955	      1.09340397	     -6.40887752	      8.33613498	      0.14549300	     26.98121043	      3.11481750	      0.00000000	      0.12352313	      0.26900741	      0.24555185	      0.22939481	      0.35777986	      0.26089884	      0.20293616	      0.65406462	      0.26089884	      0.14117459	      0.65406462	      0.21485787	      0.11470358	      0.54855991	      0.19951088	      0.07058112	      0.41669248	      0.18416388	      0.88231339	      3.04306563	      1.36568571	      0.00000000	      0.00000000	     16.92326131	      4.90776700	      0.39015954	     14.23376948	    -11.81673850	     59.79465135	     53.22570082	     11.12610226	    -11.92422457	     17.91273746	     20.38532981	     -5.80935276	     59.11216996	     49.84287015	     59.05559720	     -0.35603677	     14.71958392
      3.00000000	     -1.78247090	     -4.05699337	     83.32458960	      0.19539982	      0.98995830	      0.43193437	      6.60810091	     -1.39076867	     -2.95646107	     15.18885725	      0.26509557	     25.45449490	      0.93073260	      0.00000000	      4.08982095	      1.10361399	     -6.67169076	      8.29261056	      0.14473336	     26.76770388	      2.84317677	      0.00000000	      0.14617830	      0.27243070	      0.30196403	      0.27146771	      0.36233283	      0.32083678	      0.24015632	      0.66238801	      0.32083678	      0.16706717	      0.66238801	      0.26421853	      0.13574117	      0.55554069	      0.24534578	      0.08352628	      0.42199516	      0.22647302	      1.04413695	      3.08179059	      1.67943336	      0.00000000	      0.00000000	     17.00782504	      4.16740368	      1.29882783	     14.23807577	    -11.87094686	     59.53308819	     53.33766797	     10.61282494	    -12.01956625	     17.91692207	     20.48714476	     -5.79107707	     59.20799624	     49.73957901	     58.44381221	     -0.18637809	     14.22610757
      3.01694915	     -1.70817008	     -4.03243438	     82.83137040	      0.19567365	      0.99011430	      0.43212551	      6.75463102	     -1.26251313	     -2.50478730	     15.33826210	      0.26770318	     25.45383568	      0.75371158	      0.00000000	      3.97134450	      1.04387671	     -6.71498686	      8.16086914	      0.14243404	     26.52176422	      2.25896542	      0.00000000	      0.16880195	      0.28952132	      0.39152844	      0.31348211	      0.38506335	      0.41599897	      0.27732473	      0.70394214	      0.41599897	      0.19292375	      0.70394214	      0.34258738	      0.15674949	      0.59039187	      0.31811686	      0.09645344	      0.44846852	      0.29364633	      1.20573547	      3.27512307	      2.17756372	      0.00000000	      0.00000000	     16.86748990	      3.84837252	      2.55538802	     14.33061046	    -12.08707302	     59.56452275	     53.79620540	      8.71929760	    -13.47419068	     17.65808289	     21.13321386	     -5.80238007	     60.92396362	     49.33683020	     55.23368838	     -0.13039214	     12.85050767
      3.03389831	     -1.66977567	     -4.14775671	     82.73871301	      0.19550557	      0.99008332	      0.43246200	      6.98745151	     -1.20552859	     -2.61398570	     15.41266709	      0.26900179	     25.49112282	      0.76737026	      0.00000000	      4.15554959	      0.97888834	     -6.81191304	      8.25187369	      0.14402237	     26.29146831	      2.21256597	      0.00000000	      0.19945841	      0.29221267	      0.40520013	      0.37041422	      0.38864285	      0.43052513	      0.32769023	      0.71048588	      0.43052513	      0.22796102	      0.71048588	      0.35455011	      0.18521708	      0.59588008	      0.32922510	      0.11397054	      0.45263742	      0.30390009	      1.42471150	      3.30556816	      2.25360154	      0.00000000	      0.00000000	     17.03890307	      3.50886983	      2.92429193	     14.36647197	    -12.14307258	     59.41597077	     53.81137001	      9.44097709	    -13.31521481	     17.49667992	     21.23784310	     -5.77678146	     61.02163928	     49.34046415	     55.04324564	     -0.17767513	     12.74540045
